<svg xmlns="http://www.w3.org/2000/svg" enable-background="new 0 0 32 32" viewBox="0 0 32 32"><path fill="#263238" d="M28.5,31h-3c-0.276,0-0.5-0.224-0.5-0.5V17.989c0-0.185,0.102-0.354,0.264-0.441    c0.163-0.086,0.358-0.078,0.514,0.025l3,2C28.916,19.666,29,19.822,29,19.989V30.5C29,30.776,28.776,31,28.5,31z M26,30h2v-9.743    l-2-1.333V30z"/><circle cx="14.5" cy="28.5" r=".5" fill="#263238"/><circle cx="12.5" cy="28.5" r=".5" fill="#263238"/><circle cx="10.5" cy="28.5" r=".5" fill="#263238"/><circle cx="8.5" cy="28.5" r=".5" fill="#263238"/><circle cx="14.5" cy="26.5" r=".5" fill="#263238"/><circle cx="12.5" cy="26.5" r=".5" fill="#263238"/><circle cx="10.5" cy="26.5" r=".5" fill="#263238"/><circle cx="8.5" cy="26.5" r=".5" fill="#263238"/><circle cx="14.5" cy="24.5" r=".5" fill="#263238"/><circle cx="12.5" cy="24.5" r=".5" fill="#263238"/><circle cx="10.5" cy="24.5" r=".5" fill="#263238"/><circle cx="8.5" cy="24.5" r=".5" fill="#263238"/><circle cx="14.5" cy="22.5" r=".5" fill="#263238"/><circle cx="12.5" cy="22.5" r=".5" fill="#263238"/><circle cx="10.5" cy="22.5" r=".5" fill="#263238"/><circle cx="8.5" cy="22.5" r=".5" fill="#263238"/><circle cx="14.5" cy="20.5" r=".5" fill="#263238"/><circle cx="12.5" cy="20.5" r=".5" fill="#263238"/><circle cx="10.5" cy="20.5" r=".5" fill="#263238"/><circle cx="8.5" cy="20.5" r=".5" fill="#263238"/><circle cx="14.5" cy="18.5" r=".5" fill="#263238"/><circle cx="12.5" cy="18.5" r=".5" fill="#263238"/><circle cx="10.5" cy="18.5" r=".5" fill="#263238"/><circle cx="8.5" cy="18.5" r=".5" fill="#263238"/><g><circle cx="14.5" cy="16.5" r=".5" fill="#263238"/><circle cx="12.5" cy="16.5" r=".5" fill="#263238"/><circle cx="10.5" cy="16.5" r=".5" fill="#263238"/><circle cx="8.5" cy="16.5" r=".5" fill="#263238"/></g><g><circle cx="14.5" cy="12.5" r=".5" fill="#263238"/><circle cx="12.5" cy="12.5" r=".5" fill="#263238"/><circle cx="10.5" cy="12.5" r=".5" fill="#263238"/><circle cx="8.5" cy="12.5" r=".5" fill="#263238"/></g><g><circle cx="14.5" cy="14.5" r=".5" fill="#263238"/><circle cx="12.5" cy="14.5" r=".5" fill="#263238"/><circle cx="10.5" cy="14.5" r=".5" fill="#263238"/><circle cx="8.5" cy="14.5" r=".5" fill="#263238"/></g><path fill="#263238" d="M6.5,31h-3C3.224,31,3,30.776,3,30.5v-10C3,20.224,3.224,20,3.5,20S4,20.224,4,20.5V30h2V19H3.5   C3.224,19,3,18.776,3,18.5S3.224,18,3.5,18h3C6.776,18,7,18.224,7,18.5v12C7,30.776,6.776,31,6.5,31z"/><g><path fill="#263238" d="M25.5 29h-5c-.276 0-.5-.224-.5-.5s.224-.5.5-.5h5c.276 0 .5.224.5.5S25.776 29 25.5 29zM25.5 27h-5c-.276 0-.5-.224-.5-.5s.224-.5.5-.5h5c.276 0 .5.224.5.5S25.776 27 25.5 27zM25.5 25h-5c-.276 0-.5-.224-.5-.5s.224-.5.5-.5h5c.276 0 .5.224.5.5S25.776 25 25.5 25zM25.5 23h-5c-.276 0-.5-.224-.5-.5s.224-.5.5-.5h5c.276 0 .5.224.5.5S25.776 23 25.5 23zM25.5 21h-5c-.276 0-.5-.224-.5-.5s.224-.5.5-.5h5c.276 0 .5.224.5.5S25.776 21 25.5 21zM25.5 19h-5c-.276 0-.5-.224-.5-.5s.224-.5.5-.5h5c.276 0 .5.224.5.5S25.776 19 25.5 19zM25.5 17h-5c-.276 0-.5-.224-.5-.5s.224-.5.5-.5h5c.276 0 .5.224.5.5S25.776 17 25.5 17zM25.5 15h-7c-.276 0-.5-.224-.5-.5s.224-.5.5-.5h7c.276 0 .5.224.5.5S25.776 15 25.5 15zM25.5 13h-7c-.276 0-.5-.224-.5-.5s.224-.5.5-.5h7c.276 0 .5.224.5.5S25.776 13 25.5 13zM25.5 11h-7c-.276 0-.5-.224-.5-.5s.224-.5.5-.5h7c.276 0 .5.224.5.5S25.776 11 25.5 11zM25.5 9h-7C18.224 9 18 8.776 18 8.5S18.224 8 18.5 8h7C25.776 8 26 8.224 26 8.5S25.776 9 25.5 9z"/><path fill="#263238" d="M25.5,19c-0.276,0-0.5-0.224-0.5-0.5V7h-8c-0.276,0-0.5-0.224-0.5-0.5S16.724,6,17,6h8.5    C25.776,6,26,6.224,26,6.5v12C26,18.776,25.776,19,25.5,19z"/><path fill="#263238" d="M25.5,31H17c-0.276,0-0.5-0.224-0.5-0.5S16.724,30,17,30h8V18.5c0-0.276,0.224-0.5,0.5-0.5    s0.5,0.224,0.5,0.5v12C26,30.776,25.776,31,25.5,31z"/></g><path fill="#263238" d="M14.5,30H7V11h9v5.5h1v-6c0-0.276-0.224-0.5-0.5-0.5h-10C6.224,10,6,10.224,6,10.5v20   C6,30.776,6.224,31,6.5,31h8V30z"/><path fill="#263238" d="M18.5 31h-4c-.276 0-.5-.224-.5-.5v-14c0-.276.224-.5.5-.5h4c.276 0 .5.224.5.5S18.776 17 18.5 17H15v13h3V18.499c0-.276.224-.5.5-.5s.5.224.5.5V30.5C19 30.776 18.776 31 18.5 31zM20.5 5C20.224 5 20 4.776 20 4.5v-2C20 2.224 20.224 2 20.5 2S21 2.224 21 2.5v2C21 4.776 20.776 5 20.5 5zM22.5 5C22.224 5 22 4.776 22 4.5v-3C22 1.224 22.224 1 22.5 1S23 1.224 23 1.5v3C23 4.776 22.776 5 22.5 5z"/><path fill="#263238" d="M24.5 7h-6C18.224 7 18 6.776 18 6.5S18.224 6 18.5 6H24V5h-5.5C18.224 5 18 4.776 18 4.5S18.224 4 18.5 4h6C24.776 4 25 4.224 25 4.5v2C25 6.776 24.776 7 24.5 7zM30.5 31h-29C1.224 31 1 30.776 1 30.5S1.224 30 1.5 30h29c.276 0 .5.224.5.5S30.776 31 30.5 31z"/><g><path fill="#263238" d="M15.5,11h-8C7.224,11,7,10.776,7,10.5v-2c0-0.252,0.188-0.465,0.438-0.496l8-1    c0.148-0.018,0.286,0.026,0.394,0.121C15.938,7.22,16,7.356,16,7.5v3C16,10.776,15.776,11,15.5,11z M8,10h7V8.066L8,8.941V10z"/></g></svg>